<svg xmlns="http://www.w3.org/2000/svg" width="37" height="47" viewBox="0 0 37 47"><path fill="#FAFAFA" fill-rule="evenodd" d="M737.0848,60.1872 C736.9632,73.1984 721.0336,73.9888 715.6832,73.9888 C715.3792,78.1232 715.1968,80.92 715.1968,80.92 C715.1968,80.92 714.7712,81.6496 714.1024,82.744 C713.7376,83.2912 712.8256,85.2976 712.8256,85.2976 C712.8256,85.2976 712.096,85.5408 711.6096,86.088 C711.488,86.2704 711.0624,87.4256 711.0624,87.4256 L710.576,87.3648 L709.7856,88.5808 C709.7856,88.5808 709.36,88.216 709.2384,88.2768 C708.9344,88.4592 708.752,89.128 708.448,89.1888 C708.2656,88.0336 708.0832,80.4336 707.84,71.8 C705.104,70.0368 702.8544,66.936 702.8544,61.4032 C702.8544,61.4032 703.7664,59.64 703.7664,61.464 C703.7664,62.4368 705.2256,63.7136 707.5968,64.7472 C707.4752,61.0384 707.2928,57.3904 707.1104,54.2288 C706.3808,54.3504 705.5904,54.5328 704.8,54.6544 C702.3072,56.4176 698.6592,47.1152 703.1584,46.0816 C704.0704,45.8992 705.1648,45.656 706.2592,45.4736 L706.2592,45.2912 C706.1984,45.048 706.4416,44.5008 707.0496,44.3184 C708.3872,43.9536 710.8192,43.528 712.8864,44.5616 C723.952,43.6496 737.1456,45.656 737.0848,60.1872 Z M732.2208,58.8496 C732.464,55.688 726.2624,53.0736 716.656,53.256 L716.656,53.8032 C716.5344,57.9376 716.352,62.2544 716.1088,66.2672 C723.4048,66.0848 731.9776,62.8016 732.2208,58.8496 Z" transform="translate(-701 -43)"/></svg>