<svg xmlns="http://www.w3.org/2000/svg" width="112" height="41" viewBox="0 0 112 41"><g fill="none" fill-rule="evenodd"><path fill="#FFF" d="M16.936,11.216 C22.592,11.216 27.408,15.248 27.408,22.808 L27.408,40 L19.008,40 L19.008,24.04 C19.008,20.568 16.824,18.944 14.136,18.944 C11.056,18.944 8.92799999,20.736 8.92799999,24.712 L8.92799999,40 L0.52799999,40 L0.52799999,0.8 L8.92799999,0.8 L8.92799999,14.632 C10.44,12.56 13.24,11.216 16.936,11.216 Z M52.384,12 L60.784,12 L60.784,40 L52.384,40 L52.384,37.368 C50.872,39.44 48.072,40.784 44.376,40.784 C38.72,40.784 33.904,36.752 33.904,29.192 L33.904,12 L42.304,12 L42.304,27.96 C42.304,31.432 44.488,33.056 47.176,33.056 C50.256,33.056 52.384,31.264 52.384,27.288 L52.384,12 Z M84.808,11.216 C92.144,11.216 98.192,17.656 98.192,26 C98.192,34.344 92.144,40.784 84.808,40.784 C81.056,40.784 78.312,39.496 76.464,37.368 L76.464,40 L68.064,40 L68.064,0.8 L76.464,0.8 L76.464,14.632 C78.312,12.504 81.056,11.216 84.808,11.216 Z M83.128,32.832 C86.992,32.832 89.792,30.2 89.792,26 C89.792,21.8 86.992,19.168 83.128,19.168 C79.264,19.168 76.464,21.8 76.464,26 C76.464,30.2 79.264,32.832 83.128,32.832 Z"/><path fill="#00DF91" d="M106.592,40.784 C103.68,40.784 101.272,38.376 101.272,35.464 C101.272,32.552 103.68,30.144 106.592,30.144 C109.504,30.144 111.912,32.552 111.912,35.464 C111.912,38.376 109.504,40.784 106.592,40.784 Z"/></g></svg>